<?xml version="1.0" standalone="no"?>
<!DOCTYPE svg PUBLIC "-//W3C//DTD SVG 20010904//EN"
 "http://www.w3.org/TR/2001/REC-SVG-20010904/DTD/svg10.dtd">
<svg version="1.0" xmlns="http://www.w3.org/2000/svg"
 width="539.000000pt" height="539.000000pt" viewBox="0 0 539.000000 539.000000"
 preserveAspectRatio="xMidYMid meet">
<metadata>
Created by potrace 1.14, written by Peter Selinger 2001-2017
</metadata>
<g transform="translate(0.000000,539.000000) scale(0.100000,-0.100000)"
fill="#000000" stroke="none">
<path d="M965 4861 c71 -8 111 -27 153 -75 43 -49 52 -91 52 -238 l0 -128 70
0 70 0 0 128 c0 150 9 189 57 245 28 34 26 32 -11 -6 -57 -60 -66 -93 -66
-239 l0 -118 -29 0 -28 0 -5 123 c-7 172 -40 241 -140 291 -42 21 -65 26 -117
24 l-66 -1 60 -6z"/>
<path d="M1530 4860 c71 -7 76 -9 132 -53 69 -55 69 -52 66 -612 -3 -571 0
-548 -92 -612 -41 -28 -57 -33 -107 -33 -71 0 -122 23 -167 74 -43 49 -52 91
-52 238 0 70 -3 128 -7 130 -5 2 -36 2 -70 0 l-63 -4 0 -126 c0 -154 -9 -191
-62 -248 -58 -62 -125 -82 -203 -59 -67 19 -129 76 -144 132 -16 56 -15 983 1
1036 7 22 30 58 53 81 38 37 38 38 6 15 -19 -14 -48 -50 -65 -80 l-31 -54 0
-505 c0 -544 -1 -536 54 -608 13 -19 47 -47 75 -63 43 -24 62 -29 119 -29 82
0 125 18 182 75 53 53 65 95 72 243 l6 122 27 0 28 0 4 -137 c3 -126 5 -141
28 -178 56 -90 118 -125 223 -125 64 0 79 4 119 29 41 26 47 28 51 12 2 -10
-2 -29 -9 -42 -18 -32 -17 -103 1 -139 18 -35 68 -64 95 -55 14 5 28 -4 52
-31 41 -46 41 -59 3 -59 -45 -1 -71 -13 -90 -41 l-16 -25 30 15 c41 22 58 20
76 -8 10 -15 41 -33 83 -48 89 -31 165 -102 160 -151 -2 -19 -8 -31 -15 -29
-7 1 -13 -7 -13 -17 0 -18 -34 -51 -52 -51 -4 0 -3 12 2 26 16 40 11 43 -8 4
-18 -37 -55 -52 -76 -30 -8 9 -5 16 12 30 25 21 29 55 7 64 -12 4 -13 2 -3
-14 10 -16 9 -23 -10 -43 -15 -16 -20 -30 -16 -42 6 -14 15 -16 57 -10 63 8
68 11 107 60 35 45 34 69 -6 121 l-23 32 25 6 c14 4 30 4 36 0 7 -5 9 4 6 25
-4 28 -2 31 23 31 15 0 30 -4 33 -9 8 -13 54 -10 60 4 2 7 25 18 51 24 26 7
73 25 105 41 95 48 243 200 195 200 -9 0 -13 -5 -9 -11 3 -6 -25 -41 -65 -80
-50 -49 -92 -80 -145 -105 -85 -40 -156 -55 -156 -33 0 25 15 38 58 53 53 19
115 61 170 117 59 58 75 91 62 124 -14 37 -13 45 8 38 16 -6 16 -5 0 13 -10
10 -32 23 -50 28 -26 9 -33 17 -33 36 0 48 78 38 99 -12 l14 -31 4 41 c2 25 0
38 -6 32 -5 -5 -21 -3 -40 5 -17 8 -43 16 -58 20 -18 3 -38 20 -55 47 -27 40
-28 47 -31 195 l-4 153 -69 0 c-63 0 -69 -2 -69 -20 0 -19 -4 -20 -36 -14 -34
6 -36 5 -29 -16 7 -21 6 -21 -19 -5 -24 16 -26 22 -26 96 l0 79 155 0 155 0 0
-184 c0 -182 0 -185 25 -214 31 -37 75 -56 116 -50 28 4 30 3 25 -21 -3 -14 6
-3 19 26 29 63 41 71 67 46 20 -20 20 -20 -2 -71 -16 -38 -26 -49 -38 -45 -10
2 1 -6 23 -19 26 -15 48 -39 62 -68 20 -41 22 -43 23 -17 0 26 10 39 54 70 10
8 21 31 25 53 l6 39 23 -43 c18 -35 19 -44 8 -48 -20 -8 -27 -31 -20 -61 5
-17 20 -31 50 -44 62 -26 58 -69 -6 -69 -10 0 -21 -7 -24 -16 -16 -41 54 -85
80 -49 12 16 14 16 40 -4 15 -11 32 -21 38 -21 6 0 -4 9 -21 20 -18 11 -33 25
-33 32 0 6 -10 2 -23 -10 -29 -27 -39 -27 -61 -3 -20 22 -14 41 14 41 33 0 50
12 50 35 0 35 42 89 80 102 l35 12 -31 0 c-25 1 -33 8 -47 36 -22 45 -22 81
-1 89 19 7 54 -20 54 -42 0 -22 39 -87 61 -100 11 -7 19 -8 19 -2 0 15 39 32
60 25 27 -9 25 -37 -5 -63 -14 -12 -25 -30 -25 -39 0 -16 2 -16 11 -3 7 11 8
6 3 -20 -3 -19 -14 -44 -23 -54 -15 -18 -15 -18 6 -7 16 8 24 24 29 58 4 27
16 60 28 76 l20 27 18 -86 c10 -48 29 -107 43 -132 30 -53 25 -65 -13 -31 -48
44 -72 62 -72 57 0 -3 37 -36 83 -73 72 -59 146 -102 225 -132 20 -7 21 -10 9
-28 -13 -17 -18 -18 -58 -6 -24 7 -71 26 -104 43 -74 36 -261 171 -258 186 2
6 -4 9 -12 6 -15 -6 3 -24 93 -94 105 -81 227 -146 295 -156 35 -6 37 -8 37
-45 0 -31 3 -37 16 -32 11 4 12 9 5 16 -15 15 -14 48 3 88 l14 34 4 -34 c2
-20 9 -36 18 -38 12 -4 12 -3 2 5 -8 5 -12 20 -10 33 2 19 10 25 36 27 17 2
32 0 32 -3 0 -11 -23 -50 -34 -58 -7 -6 -6 -7 4 -5 8 2 22 18 30 36 21 44 29
40 16 -8 -7 -29 -7 -46 0 -58 6 -10 10 -33 8 -52 -3 -34 -3 -34 7 5 6 22 12
50 15 63 6 32 30 27 38 -9 7 -38 34 -96 58 -128 20 -26 24 -66 8 -76 -5 -3
-27 8 -48 25 -47 38 -138 57 -337 70 -153 11 -544 11 -586 1 -25 -6 -15 -18
199 -245 124 -131 251 -259 281 -283 49 -39 133 -87 181 -102 40 -13 422 -2
615 17 115 12 214 17 218 13 5 -5 -27 -14 -69 -20 -43 -6 -79 -13 -81 -15 -2
-2 17 -16 43 -31 l47 -28 99 13 c54 7 98 15 98 18 0 3 -10 17 -22 30 l-23 25
34 -7 c18 -3 50 -6 71 -6 30 0 39 -5 48 -25 7 -14 20 -29 29 -32 26 -10 73
-45 73 -55 0 -13 52 -88 60 -88 11 0 59 116 66 160 6 34 11 41 48 55 76 30
176 97 226 152 28 30 50 58 50 63 0 4 12 11 28 14 15 4 38 18 52 31 14 13 35
33 48 44 38 36 21 121 -26 121 -6 0 -22 11 -36 25 -14 14 -33 25 -42 25 -10 0
-26 7 -35 16 -25 23 -69 21 -90 -4 -9 -12 -19 -39 -23 -60 -3 -22 -13 -42 -21
-46 -17 -6 -21 -81 -5 -91 21 -13 8 -45 -39 -97 -27 -29 -64 -61 -82 -71 l-34
-19 33 27 c41 34 81 113 89 174 6 54 -16 145 -49 201 -28 47 -142 158 -176
171 -76 29 -123 30 -223 4 -54 -14 -108 -25 -121 -25 -35 -1 -109 -37 -146
-73 -64 -61 -91 -204 -61 -323 9 -34 9 -47 -1 -59 -11 -13 -15 -11 -34 12 -11
15 -20 30 -19 34 1 4 -56 53 -128 109 -117 93 -128 105 -111 114 53 29 81 98
80 199 0 65 -2 69 -37 97 -23 19 -30 30 -19 30 8 0 52 18 96 40 51 26 93 40
117 40 22 0 46 7 57 17 19 17 20 16 37 -6 24 -31 68 -23 77 15 8 30 -1 41 -36
46 -19 2 -25 9 -25 28 0 19 7 26 33 34 45 13 69 48 54 81 -14 30 -22 31 -72 5
-70 -36 -88 -21 -50 42 35 57 19 104 -32 96 -17 -2 -31 -20 -54 -66 -17 -34
-24 -57 -16 -50 8 7 24 32 34 56 23 50 43 62 66 38 16 -16 15 -20 -9 -64 -21
-38 -31 -46 -50 -44 -21 3 -21 1 8 -17 39 -24 63 -68 63 -113 0 -28 4 -33 25
-34 57 -4 75 -33 33 -55 -19 -10 -25 -8 -44 17 l-23 28 -24 -22 c-25 -24 -66
-28 -98 -12 -14 8 -19 8 -17 -1 4 -17 -111 -74 -212 -104 -47 -14 -102 -32
-124 -40 -37 -14 -38 -14 -32 8 3 12 6 25 6 30 0 4 8 7 18 7 33 0 196 87 239
127 39 36 44 38 58 24 15 -15 15 -13 1 14 -19 35 -23 90 -5 65 8 -11 9 -9 4
10 -4 14 -16 35 -27 47 -24 25 -18 53 11 53 25 0 49 -24 57 -56 3 -13 10 -22
14 -19 4 3 16 -12 25 -32 15 -30 16 -43 7 -68 -11 -28 -10 -29 4 -10 9 12 13
31 10 48 -8 38 0 34 24 -12 11 -22 24 -42 30 -46 5 -3 1 10 -11 29 -15 27 -17
36 -7 36 7 0 -1 9 -18 19 -17 10 -41 33 -55 51 -13 17 -34 43 -46 56 -30 32
-29 39 6 54 38 15 110 88 117 117 8 32 15 29 49 -25 17 -26 50 -60 75 -77 39
-26 55 -30 125 -33 76 -3 83 -1 135 30 36 22 64 49 85 82 29 48 30 54 33 186
l3 137 115 6 c134 6 184 25 239 90 34 39 65 117 65 162 0 45 -31 122 -64 161
l-35 41 52 35 c96 64 138 174 107 283 -16 57 -77 127 -135 154 -43 20 -57 21
-352 19 l-308 -2 305 -6 c339 -6 340 -6 398 -76 85 -103 51 -258 -71 -319 -48
-24 -60 -25 -209 -25 -87 0 -158 -4 -158 -9 0 -5 60 -10 134 -13 125 -3 136
-5 175 -31 22 -15 53 -46 68 -69 24 -36 28 -52 28 -114 0 -64 -3 -77 -30 -115
-50 -71 -102 -91 -250 -97 l-125 -5 0 -126 c0 -146 -9 -188 -52 -237 -45 -51
-96 -74 -166 -74 -79 0 -144 41 -182 115 l-25 49 -3 443 c-4 495 0 553 48 623
l31 45 -30 -34 c-67 -77 -65 -63 -71 -531 l-5 -425 -24 55 c-31 72 -254 566
-338 748 -53 113 -74 149 -104 173 -56 44 -101 59 -171 58 l-63 -2 66 -7 c96
-9 138 -42 189 -145 90 -183 402 -883 411 -923 15 -68 -5 -127 -62 -184 -27
-27 -54 -48 -61 -48 -7 0 -21 25 -31 56 l-17 56 29 33 c57 65 55 78 -54 320
-37 83 -87 194 -111 248 -24 54 -63 137 -85 185 -22 48 -52 114 -66 147 -73
172 -104 208 -180 208 -71 0 -99 -31 -168 -184 -32 -74 -96 -215 -141 -314
-211 -466 -224 -496 -224 -522 0 -34 28 -90 53 -108 17 -12 18 -17 7 -29 -7
-9 -10 -31 -8 -50 3 -30 2 -33 -13 -25 -31 16 -77 80 -89 125 -9 33 -10 54 -2
87 7 24 75 185 153 358 78 173 170 377 205 454 41 93 77 157 106 190 40 47 41
48 10 26 -18 -12 -40 -34 -48 -46 -9 -13 -87 -183 -175 -377 -88 -194 -180
-399 -206 -455 -25 -57 -50 -103 -54 -103 -5 0 -10 195 -11 433 l-3 434 -30
49 c-19 30 -49 60 -79 79 -42 26 -60 30 -125 32 l-76 1 66 -7 c94 -10 166 -68
189 -149 14 -53 14 -978 -1 -1023 -7 -19 -23 -47 -38 -64 l-26 -30 33 30 c26
24 36 27 50 19 29 -19 20 -54 -20 -87 l-38 -30 -25 23 c-13 12 -22 27 -18 33
3 6 1 7 -5 3 -18 -11 -25 14 -9 37 23 37 28 71 11 95 -13 18 -15 90 -14 512 0
556 3 537 -76 571 -56 25 -110 13 -148 -32 -26 -30 -26 -31 -26 -215 l0 -184
-155 0 -155 0 0 176 c0 206 -8 230 -85 259 -66 26 -127 -1 -164 -72 -8 -15
-11 -163 -11 -491 0 -438 -1 -470 -17 -476 -10 -3 -24 -9 -31 -12 -10 -5 -12
84 -10 473 3 472 3 479 25 520 12 22 37 53 55 68 21 18 24 22 8 13 -23 -14
-81 -81 -94 -110 -5 -11 -7 -11 -12 0 -21 45 -76 100 -123 125 -45 22 -67 27
-120 26 l-66 -2 65 -7z m1992 -683 c11 -26 18 -50 16 -53 -3 -2 -53 -3 -111
-2 l-105 3 56 123 55 123 34 -73 c19 -40 44 -95 55 -121z m132 -288 c9 -23 16
-43 14 -44 -2 -2 -23 1 -48 5 -74 15 -132 11 -190 -11 -30 -12 -70 -24 -88
-26 -31 -5 -36 -12 -73 -91 -45 -97 -67 -125 -121 -153 -64 -33 -82 -27 -105
35 l-20 54 32 6 c49 9 77 45 131 161 l48 105 202 0 202 0 16 -41z m-1324 -55
c0 -56 -4 -83 -10 -79 -6 4 -8 15 -5 25 8 26 -15 100 -32 100 -7 0 -13 9 -13
20 0 16 7 20 30 20 l30 0 0 -86z m-290 25 c0 -5 4 -8 9 -5 5 4 7 -3 4 -14 -6
-24 -19 -26 -27 -4 -9 23 -7 34 4 34 6 0 10 -5 10 -11z m50 -16 c0 -14 2 -15
9 -5 7 11 9 11 14 -1 4 -10 0 -14 -10 -13 -18 3 -40 36 -23 36 5 0 10 -8 10
-17z m157 -45 c-3 -7 -5 -2 -5 12 0 14 2 19 5 13 2 -7 2 -19 0 -25z m-322 -5
c-16 -8 -43 -27 -60 -42 -27 -23 -28 -24 -10 -2 22 26 74 61 90 61 6 -1 -3 -8
-20 -17z m259 -75 c-14 -15 -13 -16 20 -8 31 7 42 4 75 -21 71 -51 111 -140
113 -246 1 -137 -109 -248 -266 -268 -55 -6 -58 -6 -54 13 5 19 4 19 -22 4
-25 -15 -31 -14 -76 3 -65 25 -144 98 -137 128 l4 22 -17 -22 c-43 -59 -124 5
-124 98 0 15 10 40 23 55 19 22 29 26 51 20 15 -3 32 -18 38 -31 7 -16 18 -24
32 -22 26 2 36 15 36 45 0 13 8 37 17 53 16 27 16 31 0 58 -13 22 -14 31 -4
42 57 66 138 99 239 96 61 -2 65 -3 52 -19z m1250 -10 c8 -18 26 -46 41 -61
24 -25 25 -31 16 -59 -39 -112 30 -240 112 -209 15 6 27 15 27 21 0 5 8 10 17
10 9 0 13 3 10 7 -4 3 1 12 11 20 9 8 12 12 6 9 -7 -3 -11 8 -12 29 -1 19 2
35 7 35 14 0 43 -70 38 -92 -4 -15 -2 -18 10 -14 13 5 14 4 3 -9 -7 -8 -8 -15
-2 -15 13 0 103 75 115 95 15 28 57 38 84 20 19 -13 22 -19 13 -30 -6 -8 -18
-11 -26 -8 -20 8 -41 -13 -54 -53 -13 -39 -8 -53 14 -35 17 14 31 -2 22 -26
-4 -10 -14 -13 -28 -10 -14 4 -18 3 -11 -4 6 -6 19 -9 29 -7 14 2 20 14 22 45
3 42 3 42 23 22 28 -28 25 -73 -7 -98 -35 -28 -48 -26 -75 7 -21 26 -22 26
-16 3 5 -19 -4 -34 -44 -75 -42 -42 -49 -47 -44 -26 6 22 4 21 -14 -7 -27 -43
-43 -49 -132 -52 -234 -6 -391 186 -331 405 16 56 66 128 115 164 22 16 42 30
44 30 1 0 9 -15 17 -32z m213 -226 c-8 -75 -63 -112 -114 -77 -37 26 -55 123
-33 179 l9 25 72 -41 71 -42 -5 -44z m-699 -6 c-6 -11 -12 -22 -13 -24 -2 -2
-21 6 -43 17 -44 23 -57 44 -42 71 10 18 13 17 60 -12 44 -27 48 -33 38 -52z
m-489 14 c12 0 22 -13 30 -40 10 -34 9 -44 -8 -78 -22 -43 -107 -125 -155
-149 l-31 -15 36 38 c60 64 82 118 82 201 -1 63 1 70 14 58 8 -8 22 -15 32
-15z m1801 -104 c0 -28 -15 -42 -55 -50 -24 -5 -33 -2 -43 15 -7 11 -12 22
-10 23 36 20 95 43 101 39 4 -2 7 -15 7 -27z m-377 -153 c-41 -35 -132 -88
-139 -81 -2 2 20 29 49 59 45 47 57 54 90 54 l38 0 -38 -32z m-1822 -94 c4 -8
8 -7 11 2 3 8 8 11 12 8 8 -7 -20 -39 -34 -39 -5 0 -22 12 -37 26 l-28 26 35
-6 c18 -4 37 -11 41 -17z m1634 -9 c-3 -5 -14 -10 -23 -10 -15 0 -15 2 -2 10
20 13 33 13 25 0z m753 -285 c47 -20 75 -47 124 -118 60 -88 91 -177 92 -269
0 -43 5 -74 10 -71 5 4 6 1 2 -6 -13 -20 -66 -42 -89 -36 -16 5 -18 4 -8 -3
10 -7 -1 -12 -41 -17 -131 -16 -246 37 -301 140 -18 32 -22 57 -22 130 0 103
17 145 82 206 66 63 89 69 151 44z m-768 -37 c56 -30 65 -38 82 -83 10 -27 23
-59 28 -70 6 -11 26 -66 45 -123 l34 -104 -42 7 c-27 5 -56 20 -81 42 -33 30
-43 34 -74 29 -21 -3 -49 -19 -68 -37 -29 -28 -35 -30 -49 -19 -29 24 -51 82
-85 218 -31 128 -32 133 -15 152 15 16 31 20 91 20 62 0 81 -5 134 -32z m1394
-20 c18 -26 20 -61 6 -89 -10 -18 -13 -18 -41 -3 -26 13 -30 20 -27 45 3 18 1
28 -6 26 -6 -2 -10 -16 -8 -31 2 -15 -2 -26 -9 -26 -14 0 -5 65 12 86 17 21
56 17 73 -8z m66 -28 c41 -22 29 -105 -17 -117 -35 -8 -49 10 -29 38 9 13 16
38 16 56 0 36 2 38 30 23z m90 -87 c0 -29 -34 -65 -55 -57 -18 7 -18 4 0 48 8
19 15 39 14 43 -4 22 3 24 21 8 11 -10 20 -29 20 -42z m-1268 -67 c100 -74
157 -111 164 -105 12 10 29 -6 63 -63 l22 -37 -33 -5 c-98 -15 -165 -15 -217
2 l-55 17 -51 153 c-28 83 -50 152 -48 152 2 0 72 -51 155 -114z m1079 66 c29
-25 20 -52 -19 -52 -15 0 -33 5 -40 12 -9 9 -12 8 -12 -5 0 -21 66 -35 92 -18
15 9 18 8 19 -6 1 -17 2 -17 6 0 6 21 55 23 72 3 16 -19 -31 -56 -70 -56 -20
0 -27 -4 -23 -13 8 -22 -78 -109 -152 -153 -38 -22 -99 -53 -136 -68 -37 -16
-65 -33 -62 -38 3 -5 12 -4 20 3 11 9 14 7 14 -9 0 -32 -33 -46 -55 -22 -14
16 -15 24 -6 53 12 34 34 54 150 130 38 25 77 61 95 88 28 41 35 46 66 44 19
-2 26 0 15 2 -49 12 -95 89 -68 116 13 14 71 6 94 -11z m-1308 -214 l22 -23
-62 -7 c-35 -4 -67 -9 -72 -13 -5 -3 -12 -1 -15 4 -9 14 52 61 80 61 13 0 34
-10 47 -22z m921 -140 c-14 -48 -55 -66 -68 -32 -7 19 -10 17 29 37 41 22 48
21 39 -5z"/>
<path d="M2033 3694 c-25 -22 -25 -24 -3 -10 29 19 61 21 78 4 7 -7 12 -8 12
-2 0 16 -22 34 -41 34 -10 0 -31 -12 -46 -26z"/>
<path d="M2230 3706 c0 -2 8 -10 18 -17 15 -13 16 -12 3 4 -13 16 -21 21 -21
13z"/>
<path d="M2172 3655 c-15 -33 -15 -99 0 -150 6 -22 11 -43 10 -46 -1 -4 8 -5
19 -2 12 4 25 0 30 -8 12 -19 11 -62 -1 -77 -6 -8 -5 -8 4 0 8 7 16 22 18 33
2 11 15 30 30 43 73 62 21 232 -72 232 -19 0 -30 -7 -38 -25z m76 -1 c53 -37
70 -138 31 -188 -19 -25 -23 -26 -38 -12 -10 9 -23 16 -30 16 -35 0 -56 153
-25 184 19 20 34 20 62 0z"/>
<path d="M2181 3563 c0 -10 4 -27 9 -38 7 -18 9 -18 15 -3 4 9 5 25 3 34 -4
24 -28 30 -27 7z"/>
<path d="M2050 3652 c-73 -36 -101 -126 -62 -202 50 -101 164 -34 161 95 -2
50 -2 50 -9 -14 -6 -55 -12 -69 -39 -93 -17 -15 -38 -28 -47 -28 -25 0 -62 48
-69 90 -17 103 96 203 139 123 9 -17 15 -22 16 -12 0 15 -35 59 -48 59 -4 0
-23 -8 -42 -18z"/>
<path d="M2057 3574 c-4 -4 -7 -23 -7 -41 0 -42 23 -41 28 1 4 29 -9 52 -21
40z"/>
<path d="M1738 3443 c6 -2 10 -9 7 -14 -4 -5 1 -6 10 -2 15 5 15 3 5 -14 -16
-26 6 -77 35 -80 17 -3 17 -2 -2 7 -13 5 -23 18 -23 30 0 25 8 25 33 3 19 -17
19 -17 12 7 -14 48 -34 70 -63 69 -15 0 -21 -3 -14 -6z"/>
<path d="M1935 3370 c-9 -42 14 -118 43 -140 13 -11 36 -20 51 -20 16 0 21 3
14 8 -16 10 11 52 32 52 8 0 28 8 46 19 l31 19 -46 -5 c-40 -5 -48 -2 -76 25
-16 17 -30 37 -30 45 0 9 -12 17 -30 19 -25 4 -30 1 -35 -22z m128 -79 l32 -9
-28 -1 c-33 -1 -87 46 -87 76 0 12 8 6 25 -19 16 -23 38 -41 58 -47z"/>
<path d="M2150 3386 c0 -2 7 -6 15 -10 8 -3 15 -1 15 4 0 6 -7 10 -15 10 -8 0
-15 -2 -15 -4z"/>
<path d="M3395 3700 c-3 -6 1 -7 9 -4 18 7 21 14 7 14 -6 0 -13 -4 -16 -10z"/>
<path d="M3374 3652 c-32 -25 -54 -75 -54 -122 0 -25 -5 -40 -12 -40 -9 0 -8
-4 2 -11 11 -8 12 -12 3 -15 -22 -9 38 -66 64 -61 16 3 23 -1 23 -12 0 -9 5
-23 11 -31 8 -12 9 -10 4 8 -4 13 2 48 14 82 17 50 30 162 14 122 -2 -6 -9
-10 -13 -7 -5 3 -12 -11 -16 -31 -4 -24 -3 -39 6 -44 9 -6 8 -15 -5 -39 -55
-107 -117 32 -66 146 33 71 89 80 92 14 2 -23 2 -23 6 -4 6 29 -13 63 -35 63
-9 0 -27 -8 -38 -18z"/>
<path d="M3676 3382 c-4 -7 -17 -12 -29 -13 -12 0 -16 -3 -9 -6 21 -8 13 -31
-23 -67 -39 -39 -90 -54 -126 -36 l-24 11 24 -19 c23 -18 29 -19 69 -7 24 8
53 22 64 32 21 18 21 18 9 -4 -14 -28 -41 -43 -78 -44 l-28 -1 30 -9 c17 -4
40 -20 51 -35 43 -53 107 -2 106 85 -1 54 -25 131 -36 113z"/>
<path d="M3554 3545 c-8 -19 3 -65 15 -65 12 0 20 36 14 60 -6 24 -21 26 -29
5z"/>
<path d="M4400 2769 c-11 -20 -11 -20 13 -4 13 8 33 13 43 9 16 -5 16 -4 4 5
-24 17 -48 13 -60 -10z"/>
<path d="M4274 2748 l-19 -23 23 19 c21 18 27 26 19 26 -2 0 -12 -10 -23 -22z"/>
<path d="M4484 2762 c9 -15 -4 -21 -57 -24 -28 -2 -47 -8 -47 -15 0 -8 8 -9
28 -3 15 4 46 11 69 14 38 6 43 4 62 -27 11 -17 21 -28 21 -24 0 15 -32 56
-57 72 -14 10 -23 12 -19 7z"/>
<path d="M4295 2700 c-28 -29 -41 -36 -47 -27 -5 7 -7 0 -7 -18 0 -16 3 -24 6
-18 2 7 27 30 54 52 27 22 46 42 41 45 -5 3 -26 -13 -47 -34z"/>
<path d="M4457 2693 c-6 -11 9 -49 22 -58 17 -10 24 20 11 44 -11 21 -25 27
-33 14z"/>
<path d="M4361 2674 c0 -11 3 -14 6 -6 3 7 2 16 -1 19 -3 4 -6 -2 -5 -13z"/>
<path d="M4381 2674 c0 -11 3 -14 6 -6 3 7 2 16 -1 19 -3 4 -6 -2 -5 -13z"/>
<path d="M4330 2657 c0 -13 7 -32 15 -43 14 -18 14 -18 15 8 0 32 -9 58 -21
58 -5 0 -9 -10 -9 -23z"/>
<path d="M4561 2638 c-1 -38 -28 -78 -53 -78 -6 0 -9 -3 -6 -6 11 -10 47 16
61 44 9 16 11 37 6 52 -6 22 -7 20 -8 -12z"/>
<path d="M4390 2644 c0 -6 7 -19 16 -30 14 -18 14 -18 3 6 -14 31 -19 36 -19
24z"/>
<path d="M4260 2570 c8 -5 11 -10 6 -10 -5 0 3 -9 17 -20 14 -11 31 -20 39
-20 8 0 20 -6 28 -12 12 -11 12 -10 1 5 -12 15 -11 20 3 35 9 10 16 22 16 27
0 4 -9 -4 -21 -19 -26 -33 -44 -33 -65 -1 -9 14 -21 25 -28 25 -6 0 -4 -5 4
-10z"/>
<path d="M4458 2558 c5 -5 16 -8 23 -6 8 3 3 7 -10 11 -17 4 -21 3 -13 -5z"/>
<path d="M4592 2533 c-6 -2 -10 -9 -7 -14 8 -13 -22 -67 -44 -79 -11 -5 -34
-10 -52 -10 -48 0 -29 -10 27 -14 38 -3 52 -9 60 -26 l12 -21 21 27 c21 27 27
76 15 122 -6 23 -10 24 -32 15z m8 -53 c0 -14 -46 -60 -59 -60 -5 0 5 15 22
34 38 39 37 39 37 26z"/>
<path d="M2015 4861 c69 -7 116 -31 156 -81 36 -44 49 -111 49 -251 l0 -109
70 0 70 0 0 139 c0 158 9 192 68 248 l37 35 -37 -27 c-22 -16 -49 -50 -65 -83
-24 -49 -28 -70 -31 -179 l-4 -123 -29 0 -29 0 0 118 c0 154 -9 185 -75 249
-59 58 -101 74 -185 71 l-55 -1 60 -6z"/>
<path d="M905 4813 c-40 -10 -84 -53 -95 -93 -7 -26 -10 -197 -8 -503 3 -514
1 -495 71 -537 59 -36 130 -18 167 43 18 29 20 51 20 210 l0 177 155 0 155 0
0 -177 c0 -159 2 -181 20 -210 48 -79 150 -82 209 -7 21 26 21 35 21 525 l0
497 -26 31 c-38 45 -92 57 -148 32 -70 -31 -76 -50 -76 -256 l0 -175 -155 0
-155 0 0 178 c0 155 -2 180 -19 205 -31 48 -86 72 -136 60z"/>
<path d="M4286 4810 c-37 -12 -66 -38 -82 -77 -20 -47 -20 -939 0 -986 43
-102 168 -116 225 -24 19 32 21 49 21 211 l0 176 151 0 c202 0 248 21 256 117
5 58 -10 89 -56 120 -32 22 -44 23 -192 23 l-159 0 0 95 0 95 198 0 c194 0
198 0 234 25 62 42 73 121 26 181 -40 50 -66 54 -340 53 -139 0 -266 -5 -282
-9z"/>
<path d="M2606 3505 c14 -22 14 -27 0 -57 l-16 -33 20 24 c11 13 20 33 20 44
0 19 2 19 28 -9 15 -17 21 -23 15 -14 -7 9 -13 22 -13 28 0 8 -53 42 -67 42
-2 0 4 -11 13 -25z"/>
<path d="M3065 3470 c-10 -11 -24 -20 -31 -20 -6 0 -21 -18 -32 -40 -22 -45
-10 -44 13 1 21 39 32 37 27 -5 -2 -18 0 -36 5 -39 5 -3 8 7 5 22 -4 32 24 95
38 86 6 -4 10 -1 10 4 0 17 -15 13 -35 -9z"/>
<path d="M2778 3473 c7 -3 16 -2 19 1 4 3 -2 6 -13 5 -11 0 -14 -3 -6 -6z"/>
<path d="M2809 3446 c-6 -41 -32 -55 -67 -35 -27 15 -29 15 -46 -9 -10 -13
-33 -30 -50 -38 -18 -7 -24 -13 -14 -14 10 0 33 14 52 31 30 26 38 29 56 19
45 -24 94 16 77 62 -2 7 -6 0 -8 -16z"/>
<path d="M844 3368 c-78 -13 -184 -78 -184 -113 0 -6 -14 -31 -30 -54 -30 -41
-60 -138 -60 -197 0 -99 73 -216 159 -253 28 -12 51 -23 51 -26 0 -10 -118 38
-161 66 -54 34 -62 48 -53 95 5 29 1 37 -35 73 -23 22 -41 44 -41 49 0 4 -9
18 -20 30 -29 31 -84 30 -105 -1 -8 -13 -26 -29 -40 -35 -13 -6 -27 -23 -31
-37 -3 -14 -12 -25 -20 -25 -7 0 -21 -12 -30 -26 -16 -23 -16 -28 -1 -59 11
-23 26 -37 44 -41 15 -4 39 -15 52 -26 13 -10 38 -18 55 -18 20 0 44 -11 66
-29 19 -15 54 -38 77 -50 49 -25 215 -71 255 -71 23 0 32 -8 48 -43 11 -23 41
-67 68 -97 l47 -54 2 -150 c10 -568 30 -738 104 -859 16 -26 29 -51 29 -55 -1
-4 -28 -19 -60 -34 -61 -27 -73 -41 -45 -52 9 -3 109 -16 223 -28 l208 -22 0
-55 c0 -31 4 -83 11 -116 13 -72 5 -99 -39 -121 -18 -9 -48 -28 -66 -41 -27
-20 -32 -30 -28 -49 4 -13 0 -37 -8 -52 -13 -26 -12 -30 12 -58 15 -16 37 -38
49 -48 l22 -19 41 84 c22 45 40 96 40 111 0 21 7 32 25 40 40 18 73 -14 133
-133 30 -57 60 -105 68 -107 17 -4 18 -24 2 -40 -19 -19 -143 -16 -159 4 -11
14 -11 18 4 29 23 16 11 25 -33 25 -44 0 -54 -8 -34 -27 11 -11 12 -19 4 -28
-9 -11 -2 -15 32 -18 24 -3 81 -10 129 -16 47 -6 141 -11 210 -11 68 0 151 -5
184 -10 33 -6 151 -13 263 -15 132 -4 222 -10 260 -20 69 -18 452 -21 687 -4
83 6 231 14 330 19 99 4 198 13 220 18 21 6 67 8 101 5 38 -3 75 -1 100 7 21
7 82 14 134 15 131 3 142 5 103 16 -36 10 -40 24 -18 53 21 28 21 169 0 186
-20 16 -19 36 1 44 9 3 42 6 75 6 67 0 84 -16 54 -50 -24 -27 -18 -166 8 -185
9 -7 17 -17 17 -24 0 -13 10 -14 29 -2 11 7 10 13 -4 35 -12 17 -18 46 -18 81
0 44 5 61 28 90 15 20 33 39 41 42 9 3 2 19 -26 55 -22 27 -40 56 -40 64 0 8
-6 14 -12 14 -7 1 28 16 77 34 162 59 239 99 332 173 31 25 42 41 42 61 0 15
3 41 6 57 6 26 2 33 -25 54 -30 21 -32 26 -26 65 4 22 9 70 12 106 3 36 10 90
15 120 6 30 13 72 16 93 l5 37 -48 -25 c-76 -38 -269 -92 -489 -137 -158 -32
-232 -42 -352 -47 l-152 -6 -38 -37 c-21 -21 -66 -51 -101 -69 -35 -17 -61
-36 -59 -42 2 -6 29 -18 60 -26 33 -9 57 -21 57 -28 0 -16 -1 -16 -79 2 -36 9
-68 12 -73 7 -19 -19 130 -166 157 -156 8 3 12 -10 12 -39 0 -38 -5 -47 -33
-66 -67 -46 -132 -63 -229 -59 -78 3 -100 8 -155 35 -100 49 -185 144 -210
235 l-9 33 30 -35 c20 -22 28 -28 24 -15 -61 173 7 350 162 426 89 44 255 37
320 -14 l25 -20 -16 31 c-56 109 -181 162 -298 128 -47 -13 -146 -81 -135 -92
2 -3 24 7 48 20 24 13 63 29 87 36 52 13 180 16 192 4 5 -5 -27 -10 -73 -10
-143 -2 -261 -67 -329 -178 -18 -31 -38 -54 -44 -52 -19 7 -36 -45 -42 -121
-2 -40 -5 -73 -6 -73 0 0 -152 29 -336 63 -322 61 -335 64 -341 88 l-7 24 -1
-23 c-1 -20 -5 -23 -28 -18 -16 4 -113 22 -218 42 -104 19 -248 47 -320 60
-71 14 -142 23 -157 21 -26 -3 -27 -1 -48 87 -24 100 -91 253 -133 302 -40 47
-105 74 -177 74 -69 0 -106 -15 -144 -60 -35 -43 -33 -58 4 -23 34 32 81 51
128 52 34 1 113 -31 132 -54 16 -20 -18 -13 -73 14 -39 19 -58 22 -94 17 -70
-9 -144 -75 -171 -151 -9 -24 -11 -9 -10 80 1 61 -2 147 -6 192 -7 70 -6 84 7
89 9 3 109 -2 224 -11 114 -8 224 -17 243 -18 33 -2 35 0 38 31 l3 32 -73 0
c-53 1 -361 22 -427 30 -6 0 10 133 24 195 8 33 16 72 19 86 5 22 15 29 58 41
29 9 56 13 61 11 4 -2 4 -16 1 -30 -6 -21 -4 -25 8 -21 11 5 23 -10 44 -53 33
-69 54 -93 54 -61 0 12 -5 33 -12 47 -10 22 -9 28 3 36 23 14 28 11 43 -25 8
-18 19 -36 24 -40 24 -15 20 18 -13 104 -37 98 -40 110 -26 110 5 0 19 -30 31
-66 12 -36 24 -63 26 -61 2 2 -7 36 -20 75 l-25 72 29 64 c86 190 14 432 -149
504 -27 12 -70 16 -177 17 -78 0 -159 -3 -180 -7z m352 -203 c49 -34 68 -128
39 -185 -15 -28 -45 -42 -45 -20 0 6 -7 10 -15 10 -19 0 -43 42 -26 48 13 4
15 72 2 72 -6 0 -12 -15 -14 -32 -2 -20 -4 -10 -5 25 -3 88 18 115 64 82z
m-131 -18 c52 -44 41 -163 -19 -202 -22 -15 -31 -16 -57 -5 -32 14 -59 55 -59
91 0 36 40 108 68 124 35 19 37 19 67 -8z m-619 -112 c18 -14 18 -14 0 -15
-11 0 -16 -5 -13 -13 4 -10 -2 -13 -19 -9 -14 2 -24 0 -24 -7 0 -6 -4 -11 -10
-11 -17 0 -11 29 10 50 24 24 30 24 56 5z m38 -50 c3 -8 1 -15 -4 -15 -6 0
-10 7 -10 15 0 8 2 15 4 15 2 0 6 -7 10 -15z m-151 -43 c-16 -16 -16 -17 -2
-45 10 -21 10 -21 -5 -3 -19 23 -20 49 -4 79 11 21 11 21 18 2 4 -12 1 -25 -7
-33z m551 -27 c3 -22 12 -67 20 -100 22 -89 19 -121 -6 -50 -11 33 -22 92 -25
130 -6 74 1 87 11 20z m-346 13 c7 -7 12 -21 12 -32 0 -18 -1 -18 -20 -1 -11
10 -17 21 -15 25 3 5 -1 11 -7 13 -9 4 -8 6 3 6 8 1 20 -4 27 -11z m-258 -23
c0 -9 12 -27 27 -41 22 -20 24 -27 13 -34 -30 -18 -77 32 -65 70 8 24 25 27
25 5z m728 -101 c15 -7 21 -13 14 -13 -23 -2 -71 28 -83 52 -11 21 -11 21 15
-3 15 -13 39 -30 54 -36z m-602 7 c28 -22 21 -33 -15 -25 -33 8 -45 19 -37 33
10 16 25 14 52 -8z m100 -72 c3 -6 -5 -3 -20 6 -14 10 -26 19 -26 22 0 7 39
-17 46 -28z m63 -35 c14 -12 -19 -1 -35 12 -18 14 -18 14 6 3 14 -6 27 -13 29
-15z m219 -4 c36 -9 43 -15 40 -33 -3 -20 -9 -22 -53 -21 -49 1 -201 41 -192
50 2 3 16 0 31 -6 39 -14 114 -20 139 -10 21 8 21 8 -5 19 -27 10 -40 25 -15
16 6 -2 31 -9 55 -15z m485 -28 c-20 -14 -35 -12 -41 8 -3 9 1 11 12 7 10 -4
15 -3 11 3 -3 6 -3 15 1 22 5 7 11 5 21 -8 12 -16 11 -20 -4 -32z m-253 -128
c-11 -70 -22 -129 -24 -131 -5 -5 -104 104 -117 128 -8 15 -6 19 9 19 41 0 54
42 26 85 -23 35 -8 31 23 -5 13 -16 32 -30 41 -30 23 0 52 30 52 53 0 11 2 18
6 15 3 -3 -4 -63 -16 -134z m-163 90 c-3 -3 -12 -4 -19 -1 -8 3 -5 6 6 6 11 1
17 -2 13 -5z m363 -309 c102 -8 198 -15 213 -15 16 0 26 -3 23 -8 -5 -8 -423
21 -433 31 -8 9 -24 9 197 -8z m86 -301 c78 -37 143 -147 170 -288 15 -74 16
-100 6 -160 -15 -99 -16 -100 -36 -131 -10 -15 -13 -24 -7 -21 18 12 13 -3
-20 -50 -85 -124 -242 -107 -335 37 -21 35 -30 84 -12 73 5 -3 5 -10 2 -16 -4
-7 -2 -8 4 -4 7 4 12 1 12 -7 0 -8 7 -18 16 -21 12 -5 11 0 -5 22 -44 62 -65
150 -66 272 0 105 2 120 28 175 15 33 36 68 45 79 49 55 131 72 198 40z m3389
-431 c-4 -38 -9 -71 -11 -74 -5 -10 -173 -75 -211 -84 l-33 -7 0 70 c0 44 5
73 13 80 6 5 41 18 77 28 36 9 83 25 105 35 67 29 68 28 60 -48z m-3081 -59
c31 -104 53 -154 69 -153 9 0 9 2 0 6 -20 7 -15 25 5 19 19 -6 659 -106 680
-106 6 0 12 -5 12 -11 0 -6 -8 -8 -17 -5 -10 3 -97 17 -193 31 -96 14 -233 34
-304 45 -71 11 -138 20 -150 19 -24 -1 161 -32 463 -78 148 -23 206 -28 212
-20 8 14 105 2 134 -17 11 -7 126 -27 255 -44 129 -16 250 -33 268 -36 28 -4
34 -2 39 15 4 17 10 14 45 -27 22 -25 36 -48 30 -50 -5 -1 -237 29 -514 68
-276 39 -588 82 -693 96 -225 30 -258 38 -285 67 -20 20 -70 164 -84 236 -10
55 2 30 28 -55z m2044 -167 c22 -13 23 -13 4 -31 -19 -16 -20 -16 -30 13 -12
34 -8 37 26 18z m372 -86 c15 -29 12 -41 -7 -35 -16 5 -16 4 0 -9 15 -13 17
-19 7 -37 -10 -18 -14 -19 -28 -8 -12 10 -14 10 -8 1 4 -7 3 -13 -2 -13 -27 0
-40 65 -21 103 13 23 46 22 59 -2z m-1371 -27 c8 -7 -63 -2 -94 7 -20 5 -9 6
30 2 33 -3 62 -7 64 -9z m59 -11 c-10 -2 -26 -2 -35 0 -10 3 -2 5 17 5 19 0
27 -2 18 -5z m70 -10 c-10 -2 -26 -2 -35 0 -10 3 -2 5 17 5 19 0 27 -2 18 -5z
m75 -10 c-7 -2 -21 -2 -30 0 -10 3 -4 5 12 5 17 0 24 -2 18 -5z m209 -25 c-6
-6 -15 -7 -22 -3 -8 5 -6 11 7 20 20 15 32 0 15 -17z m-1579 15 c-7 -2 -21 -2
-30 0 -10 3 -4 5 12 5 17 0 24 -2 18 -5z m1424 1 c-3 -3 -12 -4 -19 -1 -8 3
-5 6 6 6 11 1 17 -2 13 -5z m-1324 -11 c-7 -2 -21 -2 -30 0 -10 3 -4 5 12 5
17 0 24 -2 18 -5z m1420 0 c-7 -2 -19 -2 -25 0 -7 3 -2 5 12 5 14 0 19 -2 13
-5z m-1316 -9 c-3 -3 -12 -4 -19 -1 -8 3 -5 6 6 6 11 1 17 -2 13 -5z m576
-316 c19 -22 23 -63 6 -73 -5 -4 -28 5 -49 20 -23 16 -46 25 -56 21 -26 -10
-11 -27 41 -47 89 -33 110 -91 56 -151 -29 -32 -31 -33 -111 -33 -74 0 -84 2
-101 24 -21 26 -25 76 -8 87 6 4 25 -7 41 -25 20 -21 38 -31 59 -31 39 0 38
26 -2 35 -49 11 -99 61 -99 100 0 41 32 82 73 94 50 13 129 2 150 -21z m523
21 c117 -30 152 -184 58 -256 -49 -37 -134 -43 -182 -14 -114 72 -88 240 42
272 17 4 32 7 34 8 2 1 23 -4 48 -10z m-936 -54 c33 -30 64 -55 70 -55 16 0
12 46 -5 60 -8 7 -15 21 -15 31 0 16 8 19 55 19 62 0 80 -17 51 -49 -12 -14
-16 -39 -16 -113 0 -154 -8 -158 -113 -63 -39 36 -77 65 -84 65 -18 0 -17 -55
2 -74 35 -34 13 -56 -56 -56 -49 0 -57 17 -34 66 23 50 17 158 -10 177 -33 25
-12 47 45 47 47 0 54 -4 110 -55z m701 26 c20 -20 29 -39 29 -61 0 -50 -47
-90 -104 -90 -43 0 -46 -2 -46 -25 0 -14 7 -28 15 -31 20 -8 19 -40 -1 -48 -9
-3 -39 -6 -69 -6 -61 0 -86 18 -60 43 23 23 22 192 -2 205 -10 6 -14 16 -10
26 5 13 24 16 112 16 104 0 107 -1 136 -29z m598 16 c37 -19 48 -63 23 -96
l-20 -27 24 -27 c13 -16 24 -37 24 -47 0 -11 9 -24 20 -30 16 -9 18 -15 10
-30 -8 -16 -21 -20 -59 -20 -54 0 -75 16 -87 65 -13 56 -44 75 -44 28 0 -14 7
-35 16 -45 14 -15 15 -20 4 -33 -18 -22 -129 -17 -143 6 -8 13 -6 21 6 34 24
23 24 166 1 190 -9 8 -13 22 -10 30 7 19 198 21 235 2z m366 -17 c21 -40 19
-57 -7 -71 -19 -10 -25 -8 -43 15 -11 14 -24 26 -28 26 -4 0 -7 -36 -7 -81 0
-71 3 -83 23 -100 22 -19 22 -19 3 -34 -13 -9 -42 -15 -79 -15 -87 0 -124 28
-77 58 17 11 20 23 20 94 l0 82 -30 -29 c-24 -23 -32 -26 -45 -15 -19 16 -19
49 1 78 14 21 22 22 134 22 l119 0 16 -30z m223 3 c11 -16 40 -69 65 -119 25
-50 53 -94 62 -98 13 -4 14 -10 5 -26 -9 -17 -21 -20 -78 -20 -81 0 -103 10
-84 40 18 29 16 30 -33 30 -49 0 -51 -1 -32 -30 16 -28 -3 -40 -66 -40 -59 0
-73 21 -34 53 30 25 75 119 84 174 8 51 19 63 59 63 24 0 38 -7 52 -27z m411
14 c6 -8 14 -28 17 -45 5 -24 2 -32 -15 -41 -18 -10 -25 -8 -45 14 -13 14 -26
25 -30 25 -3 0 -6 -38 -6 -84 0 -76 2 -85 20 -91 23 -7 26 -25 8 -43 -15 -15
-132 -16 -159 -2 -24 13 -25 37 0 45 15 4 19 20 25 81 3 42 3 80 0 86 -3 5
-19 -3 -35 -18 -24 -23 -31 -25 -44 -14 -19 16 -19 33 0 70 l16 30 118 0 c87
0 122 -4 130 -13z"/>
<path d="M999 3067 c-13 -29 -5 -61 14 -55 15 6 22 57 8 71 -7 7 -14 2 -22
-16z"/>
<path d="M933 2528 c7 -4 21 -8 32 -8 11 0 25 4 32 8 6 4 -8 7 -32 7 -24 0
-38 -3 -32 -7z"/>
<path d="M1230 2014 c0 -37 22 -144 30 -144 5 0 12 -10 15 -21 6 -18 12 -9 31
46 13 38 24 74 24 81 0 16 -35 40 -72 49 -23 6 -28 4 -28 -11z"/>
<path d="M1149 1997 c-19 -12 -35 -31 -37 -40 -5 -25 62 -119 100 -141 l31
-19 -6 29 c-3 16 -11 66 -17 112 -8 52 -17 82 -25 82 -6 0 -27 -10 -46 -23z"/>
<path d="M1346 1960 c-3 -8 -10 -35 -16 -60 -6 -25 -14 -53 -17 -64 -3 -12 -1
-16 6 -12 7 5 11 -6 11 -33 0 -23 3 -41 6 -41 8 0 104 70 104 76 0 11 -50 102
-68 124 -16 20 -22 22 -26 10z"/>
<path d="M1085 1921 c-3 -7 -9 -37 -11 -69 -3 -31 -10 -62 -15 -69 -8 -9 8
-17 61 -33 40 -12 75 -19 78 -15 6 6 -46 113 -60 121 -3 2 -11 -19 -16 -48 -7
-40 -10 -45 -11 -21 0 17 4 44 9 59 8 21 7 32 -9 56 -12 20 -21 26 -26 19z"/>
<path d="M1387 1742 c-26 -26 -47 -51 -47 -55 0 -9 104 -57 121 -57 11 0 4
114 -8 147 -8 20 -15 16 -66 -35z"/>
<path d="M1290 1761 c0 -24 -25 -28 -34 -6 -8 22 -36 18 -36 -5 0 -11 7 -20
15 -20 9 0 15 -9 15 -25 0 -15 -6 -25 -14 -25 -21 0 -30 -20 -17 -33 8 -8 14
-8 22 0 9 9 17 9 31 0 16 -10 22 -9 33 6 10 14 14 15 18 5 3 -7 6 -3 6 10 1
13 -3 20 -9 17 -5 -3 -10 2 -10 12 -1 17 -1 17 -11 1 -15 -27 -39 -22 -39 8 0
21 4 25 20 21 11 -3 18 -1 14 4 -3 5 0 9 5 9 14 0 14 27 1 35 -5 3 -10 -3 -10
-14z"/>
<path d="M1060 1728 c0 -29 23 -138 29 -138 27 0 34 106 9 138 -13 15 -38 16
-38 0z"/>
<path d="M1124 1678 c4 -23 9 -44 11 -47 7 -7 55 41 55 55 0 10 -48 34 -68 34
-2 0 -2 -19 2 -42z"/>
<path d="M1320 1630 c0 -39 101 -143 121 -123 5 5 12 29 15 53 l6 45 -61 18
c-70 20 -81 21 -81 7z"/>
<path d="M1280 1609 c0 -11 5 -17 10 -14 6 3 10 13 10 21 0 8 -4 14 -10 14 -5
0 -10 -9 -10 -21z"/>
<path d="M1127 1588 c-27 -17 -44 -34 -39 -37 5 -3 19 -26 31 -50 17 -32 26
-40 34 -32 8 8 8 20 -1 44 -17 47 -14 67 5 33 l15 -29 13 29 c26 63 28 74 8
74 -10 0 -40 -14 -66 -32z"/>
<path d="M1232 1573 c-8 -3 -22 -25 -33 -50 -23 -54 -23 -59 -4 -43 12 10 15
9 15 -8 0 -18 58 -67 68 -57 6 5 -20 165 -27 164 -3 0 -12 -3 -19 -6z"/>
<path d="M1284 1566 c-9 -24 11 -121 24 -118 7 1 12 -4 12 -12 0 -7 6 -19 14
-25 11 -9 20 -7 42 12 l28 24 -45 66 c-44 66 -65 80 -75 53z"/>
<path d="M1180 1415 c0 -12 67 -45 90 -45 22 0 19 3 -19 25 -40 23 -71 32 -71
20z"/>
<path d="M4488 1574 c-5 -4 -8 -32 -8 -63 0 -39 3 -52 11 -44 5 5 9 34 7 62
-2 29 -6 49 -10 45z"/>
<path d="M4453 1515 c0 -33 2 -45 4 -27 2 18 2 45 0 60 -2 15 -4 0 -4 -33z"/>
<path d="M3980 1240 c0 -5 5 -10 11 -10 5 0 7 5 4 10 -3 6 -8 10 -11 10 -2 0
-4 -4 -4 -10z"/>
<path d="M2711 821 c-9 -15 -7 -33 6 -72 19 -56 40 -76 68 -65 15 5 17 14 11
54 -10 77 -62 127 -85 83z"/>
<path d="M2440 810 c0 -40 5 -45 34 -34 29 11 16 74 -15 74 -15 0 -19 -7 -19
-40z"/>
<path d="M3050 815 c0 -37 10 -44 30 -20 14 17 4 55 -16 55 -9 0 -14 -11 -14
-35z"/>
<path d="M3674 775 c-4 -11 -9 -23 -11 -27 -2 -5 7 -8 21 -8 30 0 32 8 12 36
-14 19 -15 19 -22 -1z"/>
<path d="M2781 3198 c-1 -3 15 -34 34 -68 19 -34 35 -73 35 -86 0 -17 6 -24
20 -24 11 0 20 4 20 8 0 4 -19 38 -42 74 -63 99 -67 104 -67 96z"/>
<path d="M1720 3115 c-7 -9 -11 -17 -9 -20 3 -2 10 5 17 15 14 24 10 26 -8 5z"/>
<path d="M1712 3069 c7 -23 91 -59 149 -64 51 -4 52 -4 13 4 -91 20 -126 33
-146 53 -11 11 -19 14 -16 7z"/>
<path d="M3578 2988 c5 -5 16 -8 23 -6 8 3 3 7 -10 11 -17 4 -21 3 -13 -5z"/>
<path d="M2420 2882 c-46 -23 -58 -66 -59 -207 0 -123 19 -254 44 -291 23 -35
170 -98 425 -182 145 -48 178 -53 219 -35 20 9 47 17 60 17 13 1 29 9 35 19 9
15 6 22 -16 41 -23 18 -28 30 -28 67 0 32 6 49 20 62 37 31 20 83 -24 75 -14
-3 -26 -1 -26 4 0 6 -88 100 -197 209 -170 173 -203 201 -250 219 -67 25 -156
26 -203 2z m458 -548 c2 -50 -1 -73 -8 -69 -11 7 -14 145 -2 145 4 0 8 -34 10
-76z m157 -141 c-27 -19 -37 -16 -18 6 9 11 21 17 26 14 6 -3 2 -12 -8 -20z"/>
<path d="M1490 2846 c0 -2 8 -10 18 -17 15 -13 16 -12 3 4 -13 16 -21 21 -21
13z"/>
<path d="M1646 2818 c-18 -30 -66 -182 -66 -212 0 -38 30 -41 43 -5 9 23 16
29 32 25 11 -3 28 -6 38 -6 10 0 24 -15 34 -35 18 -38 41 -52 49 -30 11 29
-72 262 -99 277 -12 6 -20 2 -31 -14z m54 -150 c0 -5 -11 -8 -25 -8 -27 0 -31
10 -14 42 11 21 12 21 25 -3 7 -13 13 -27 14 -31z"/>
<path d="M1446 2821 c-3 -4 -1 -23 4 -42 15 -52 13 -59 -19 -59 -25 0 -31 5
-43 42 -8 26 -20 44 -30 46 -26 5 -23 -19 15 -133 24 -71 39 -101 51 -103 15
-3 17 1 11 30 -13 57 -11 63 17 66 24 3 27 -1 33 -38 6 -38 27 -61 41 -47 7 6
-24 189 -37 225 -8 22 -33 30 -43 13z"/>
<path d="M1408 2774 c8 -24 16 -43 18 -41 6 5 -16 76 -25 81 -4 3 -1 -15 7
-40z"/>
<path d="M1738 2775 c9 -26 18 -42 20 -37 3 9 -26 82 -33 82 -2 0 4 -20 13
-45z"/>
<path d="M1521 2805 c-1 -5 7 -58 17 -117 23 -131 11 -165 -42 -120 -21 17
-21 17 -2 -5 21 -25 46 -29 64 -11 9 9 16 7 31 -6 22 -20 61 -14 61 10 0 20
24 28 49 15 17 -9 20 -9 15 3 -9 24 -57 24 -69 1 -15 -29 -51 -31 -68 -3 -8
13 -21 64 -28 113 -11 80 -27 147 -28 120z"/>
<path d="M1875 2780 c-4 -6 -14 -62 -24 -125 -15 -93 -16 -119 -6 -132 11 -15
15 -15 29 -4 9 7 16 23 16 35 0 40 13 48 53 31 37 -15 67 -12 67 9 0 20 -14
32 -55 48 -33 13 -39 20 -37 39 2 13 5 25 7 27 2 2 26 -6 54 -18 55 -24 81
-21 81 8 0 26 -14 36 -94 66 -77 29 -82 30 -91 16z"/>
<path d="M1832 2690 c0 -14 2 -19 5 -12 2 6 2 18 0 25 -3 6 -5 1 -5 -13z"/>
<path d="M2093 2685 c0 -34 -29 -58 -61 -52 -17 3 -20 1 -13 -6 16 -16 13 -63
-4 -77 -14 -12 -42 -10 -78 5 -14 6 -18 1 -23 -24 -10 -46 -30 -59 -64 -39
-23 13 -28 14 -23 2 6 -17 46 -29 68 -20 9 3 21 20 27 36 8 23 15 29 27 24 44
-19 69 -16 86 10 9 14 14 33 11 44 -5 15 1 22 24 32 33 14 48 48 32 76 -8 14
-9 12 -9 -11z"/>
<path d="M1450 2625 c0 -8 2 -15 4 -15 2 0 6 7 10 15 3 8 1 15 -4 15 -6 0 -10
-7 -10 -15z"/>
<path d="M1377 2610 c14 -51 10 -75 -14 -74 -12 0 -20 -3 -17 -8 9 -13 44 -9
50 6 5 12 11 13 31 3 29 -13 43 2 41 43 l-1 25 -4 -25 c-10 -53 -46 -46 -74
14 -10 23 -16 30 -12 16z"/>
<path d="M1791 2623 c-1 -6 4 -24 9 -39 6 -15 8 -35 5 -45 -8 -25 -60 -26 -74
-1 -6 9 -11 11 -11 5 0 -7 11 -20 25 -29 34 -22 75 -6 74 28 -1 25 -27 100
-28 81z"/>
<path d="M1296 2585 c4 -8 8 -15 10 -15 2 0 4 7 4 15 0 8 -4 15 -10 15 -5 0
-7 -7 -4 -15z"/>
<path d="M4095 2540 c10 -11 23 -20 28 -20 6 0 2 9 -8 20 -10 11 -23 20 -28
20 -6 0 -2 -9 8 -20z"/>
<path d="M1310 2515 c-7 -8 -17 -12 -23 -8 -6 3 -7 1 -3 -5 11 -18 24 -14 36
8 13 24 8 26 -10 5z"/>
<path d="M1545 2502 c-15 -10 -20 -96 -6 -88 6 4 11 14 11 22 0 21 21 17 27
-6 6 -24 28 -26 37 -4 19 51 -2 92 -32 62 -9 -9 -12 -8 -12 5 0 18 -8 21 -25
9z m12 -34 c-3 -8 -6 -5 -6 6 -1 11 2 17 5 13 3 -3 4 -12 1 -19z m53 -13 c0
-8 -4 -17 -10 -20 -6 -4 -10 5 -10 20 0 15 4 24 10 20 6 -3 10 -12 10 -20z"/>
<path d="M1431 2448 c1 -34 4 -42 6 -23 l5 30 14 -25 13 -25 1 25 c0 14 3 35
6 48 4 13 2 22 -5 22 -5 0 -8 -8 -5 -17 5 -17 5 -17 -9 0 -22 27 -27 21 -26
-35z"/>
<path d="M1490 2477 c0 -13 6 -29 13 -36 10 -11 9 -13 -6 -7 -13 4 -17 2 -15
-6 3 -7 11 -13 19 -13 10 0 14 13 14 43 1 28 -4 42 -12 42 -7 0 -13 -10 -13
-23z"/>
<path d="M1628 2456 c-3 -45 6 -63 15 -28 4 13 5 11 6 -5 0 -13 6 -23 12 -23
6 0 9 19 7 47 -2 35 -7 49 -19 51 -13 2 -18 -7 -21 -42z"/>
<path d="M1392 2465 c3 -13 1 -22 -3 -19 -15 9 -10 -17 6 -33 23 -22 28 -11
15 36 -12 44 -25 57 -18 16z"/>
<path d="M1687 2483 c-11 -10 -8 -25 3 -18 12 8 12 8 1 -33 -8 -25 -7 -32 5
-32 8 0 13 3 13 8 -4 24 2 52 11 47 6 -3 10 0 10 8 0 8 -7 18 -16 21 -19 7
-19 7 -27 -1z"/>
<path d="M1333 2473 c-8 -3 -13 -23 -13 -50 0 -37 3 -44 16 -39 9 3 22 6 30 6
8 0 14 5 14 11 0 5 -4 7 -10 4 -10 -6 -14 13 -11 47 2 19 -9 27 -26 21z"/>
<path d="M1747 2457 c-4 -11 -4 -24 0 -29 3 -6 1 -8 -4 -5 -6 4 -13 -3 -16
-14 -4 -15 -2 -19 8 -15 8 3 16 0 18 -7 10 -29 19 7 11 45 -7 33 -11 39 -17
25z"/>
<path d="M1284 2452 c-7 -4 -9 -23 -4 -52 7 -47 14 -41 25 23 6 36 1 44 -21
29z"/>
<path d="M1786 2453 c-10 -10 -7 -25 4 -18 7 4 8 -3 4 -22 -10 -43 -10 -45 4
-50 7 -3 13 1 11 8 -4 34 2 60 12 53 7 -4 9 -21 6 -40 -3 -19 -2 -36 3 -39 4
-3 10 10 12 28 3 17 7 38 9 46 4 14 -54 45 -65 34z"/>
<path d="M1861 2406 c-18 -21 -10 -70 11 -74 20 -4 33 35 23 67 -7 25 -18 27
-34 7z m16 -43 c-3 -10 -5 -4 -5 12 0 17 2 24 5 18 2 -7 2 -21 0 -30z"/>
<path d="M1904 2354 c-6 -24 -7 -44 -2 -44 4 0 8 8 9 18 0 11 4 8 13 -10 l12
-28 11 40 c6 22 7 43 2 45 -4 3 -10 -3 -12 -12 -4 -14 -5 -13 -6 4 -2 39 -17
33 -27 -13z"/>
<path d="M2146 2285 c-3 -9 -6 -52 -6 -96 0 -76 1 -79 26 -85 38 -10 44 8 42
106 -3 84 -3 85 -29 88 -17 2 -29 -3 -33 -13z"/>
<path d="M2347 2274 c-4 -4 -7 -42 -7 -85 0 -78 12 -109 44 -109 26 0 31 21
26 107 -5 85 -6 88 -30 91 -14 2 -29 0 -33 -4z"/>
<path d="M3960 2076 c28 -17 50 -21 35 -7 -6 5 -21 12 -35 15 l-25 7 25 -15z"/>
<path d="M4010 2056 c0 -3 9 -10 20 -16 11 -6 20 -8 20 -6 0 3 -9 10 -20 16
-11 6 -20 8 -20 6z"/>
<path d="M3820 1994 c0 -8 15 -10 46 -6 37 4 45 2 39 -8 -5 -9 -4 -11 3 -6 7
4 12 2 12 -5 0 -7 3 -10 6 -6 3 3 3 14 0 24 -5 14 -16 18 -56 18 -31 0 -50 -4
-50 -11z"/>
<path d="M4680 1989 c-14 -10 -52 -30 -85 -44 l-60 -25 -20 25 c-26 31 -45 32
-45 3 0 -43 -12 -48 -139 -60 l-123 -10 -24 28 -24 29 19 -35 c10 -19 24 -52
31 -72 6 -21 18 -38 25 -38 8 0 19 -10 26 -21 10 -20 16 -21 107 -14 107 8
191 31 267 73 40 22 51 33 53 57 2 16 12 40 23 53 21 28 26 72 7 71 -7 0 -24
-9 -38 -20z m30 -13 c0 -8 -4 -18 -10 -21 -5 -3 -10 3 -10 14 0 12 5 21 10 21
6 0 10 -6 10 -14z m-243 -102 c-3 -3 -12 -4 -19 -1 -8 3 -5 6 6 6 11 1 17 -2
13 -5z m-50 -10 c-3 -3 -12 -4 -19 -1 -8 3 -5 6 6 6 11 1 17 -2 13 -5z m100
-30 c-3 -3 -12 -4 -19 -1 -8 3 -5 6 6 6 11 1 17 -2 13 -5z m-44 -11 c-7 -2
-19 -2 -25 0 -7 3 -2 5 12 5 14 0 19 -2 13 -5z m-60 -10 c-7 -2 -19 -2 -25 0
-7 3 -2 5 12 5 14 0 19 -2 13 -5z"/>
<path d="M3940 1990 c0 -5 7 -10 15 -10 8 0 15 5 15 10 0 6 -7 10 -15 10 -8 0
-15 -4 -15 -10z"/>
<path d="M4100 1997 c0 -2 15 -16 33 -33 l32 -29 -29 33 c-28 30 -36 37 -36
29z"/>
<path d="M3993 1953 c9 -2 25 -2 35 0 9 3 1 5 -18 5 -19 0 -27 -2 -17 -5z"/>
<path d="M3789 1873 c-13 -16 -12 -17 4 -4 16 13 21 21 13 21 -2 0 -10 -8 -17
-17z"/>
<path d="M4050 1864 l-35 -15 26 -14 c14 -7 53 -17 88 -21 l63 -7 -16 30 c-8
17 -12 33 -9 37 13 13 -83 5 -117 -10z m108 -16 c18 -18 14 -28 -11 -28 -16 0
-23 6 -23 20 0 22 16 26 34 8z m-58 -8 c0 -13 -11 -13 -30 0 -12 8 -11 10 8
10 12 0 22 -4 22 -10z"/>
<path d="M2270 1792 c0 -12 19 -26 26 -19 2 2 -2 10 -11 17 -9 8 -15 8 -15 2z"/>
<path d="M3357 1779 c-51 -12 -117 -47 -117 -62 0 -25 114 -125 150 -132 l35
-7 -27 22 c-34 26 -35 34 -6 47 19 8 22 16 19 69 -1 32 -6 62 -9 65 -4 3 -24
2 -45 -2z"/>
<path d="M3430 1778 c1 -49 21 -141 34 -154 9 -8 16 -23 16 -32 0 -10 13 2 29
27 17 25 28 48 25 53 -3 4 1 8 8 8 8 0 22 14 32 31 21 36 16 42 -44 58 -80 21
-100 23 -100 9z"/>
<path d="M3654 1748 l-19 -23 23 19 c21 18 27 26 19 26 -2 0 -12 -10 -23 -22z"/>
<path d="M2291 1714 c0 -11 3 -14 6 -6 3 7 2 16 -1 19 -3 4 -6 -2 -5 -13z"/>
<path d="M3588 1687 c-43 -70 -64 -114 -46 -99 13 11 15 7 14 -25 -1 -43 21
-55 49 -26 10 9 27 17 39 18 31 0 22 34 -19 71 -41 37 -46 54 -9 29 33 -21 37
-17 23 26 -18 51 -22 52 -51 6z"/>
<path d="M2411 1684 c0 -11 3 -14 6 -6 3 7 2 16 -1 19 -3 4 -6 -2 -5 -13z"/>
<path d="M3189 1683 c-12 -14 -12 -16 0 -8 8 5 5 -5 -7 -23 -13 -17 -29 -47
-37 -66 -14 -34 -14 -36 3 -36 11 0 23 13 31 35 7 19 23 48 36 63 18 22 21 32
13 40 -16 16 -23 15 -39 -5z"/>
<path d="M2301 1674 c0 -11 3 -14 6 -6 3 7 2 16 -1 19 -3 4 -6 -2 -5 -13z"/>
<path d="M3221 1627 c-11 -18 -24 -44 -29 -58 -10 -25 -9 -26 61 -43 84 -19
97 -20 97 -5 0 5 -4 8 -9 5 -22 -14 -41 6 -36 38 4 25 -1 37 -25 64 -16 17
-32 32 -34 32 -2 0 -13 -15 -25 -33z"/>
<path d="M2311 1624 c0 -11 3 -14 6 -6 3 7 2 16 -1 19 -3 4 -6 -2 -5 -13z"/>
<path d="M2431 1584 c0 -11 3 -14 6 -6 3 7 2 16 -1 19 -3 4 -6 -2 -5 -13z"/>
<path d="M3365 1540 c-10 -16 14 -40 32 -33 13 5 14 3 3 -17 -10 -19 -9 -27 9
-51 12 -16 20 -33 17 -37 -3 -4 -1 -14 4 -21 11 -19 33 -3 27 19 -5 19 14 33
45 34 10 1 18 4 18 9 0 25 -1 28 -12 25 -7 -3 -18 5 -23 16 -9 16 -8 24 4 32
16 12 7 34 -15 34 -8 0 -14 -9 -14 -20 0 -15 -7 -20 -24 -20 -16 0 -27 7 -31
20 -7 21 -30 27 -40 10z m100 -60 c0 -9 -11 -16 -27 -18 -27 -3 -38 14 -21 32
12 12 48 2 48 -14z"/>
<path d="M3130 1473 c0 -73 8 -103 25 -97 10 4 11 13 4 37 -5 18 -8 50 -7 71
2 24 -2 41 -10 44 -8 2 -12 -13 -12 -55z"/>
<path d="M3180 1467 c0 -74 6 -79 63 -55 32 14 47 26 47 39 0 11 5 19 11 19 5
0 7 -4 4 -10 -3 -6 1 -7 9 -4 15 6 23 24 11 24 -3 0 -37 9 -75 19 l-70 20 0
-52z"/>
<path d="M3344 1449 c-3 -6 -1 -16 4 -21 13 -13 45 8 36 23 -7 12 -31 11 -40
-2z"/>
<path d="M3229 1379 l-87 -30 19 -22 c10 -12 29 -35 43 -52 13 -16 27 -27 31
-23 4 4 -4 21 -19 38 -14 17 -26 36 -26 41 0 18 19 8 44 -23 14 -18 27 -30 29
-28 1 3 24 30 50 61 26 31 47 59 47 63 0 13 -47 4 -131 -25z"/>
<path d="M3472 1358 c-18 -18 -15 -114 5 -144 14 -22 21 -25 51 -19 19 3 49
14 68 23 l35 16 -68 68 c-37 37 -70 68 -73 68 -3 0 -11 -5 -18 -12z"/>
<path d="M3334 1318 c-22 -24 -40 -50 -40 -58 1 -16 71 -53 119 -64 l29 -7 -7
68 c-4 37 -9 76 -11 86 -9 30 -48 19 -90 -25z"/>
<path d="M3275 1211 c9 -15 112 -51 143 -50 19 0 11 5 -26 15 -29 7 -66 21
-82 29 -33 17 -44 19 -35 6z"/>
<path d="M3606 1205 c-11 -8 -16 -15 -10 -15 5 0 18 7 28 15 11 8 16 15 10 15
-5 0 -18 -7 -28 -15z"/>
<path d="M3640 1180 c-18 -14 -21 -20 -9 -20 9 0 24 9 34 20 23 26 8 26 -25 0z"/>
<path d="M3525 1175 c-22 -8 -31 -14 -20 -14 11 0 34 6 50 14 38 17 22 17 -30
0z"/>
<path d="M4467 817 c-3 -7 -2 -26 1 -42 5 -26 6 -27 13 -10 11 28 11 65 0 65
-5 0 -11 -6 -14 -13z"/>
<path d="M1472 765 c-11 -24 -10 -25 19 -25 26 0 29 2 19 19 -16 31 -26 32
-38 6z"/>
</g>
</svg>
